# xmcd
#
# Track frame offsets:
#	150
#	12654
#	28798
#	49230
#	56862
#	73760
#	90135
#	104436
#	117599
#	137182
#	154866
#	174228
#	198650
#	214034
#	228269
#	237084
#
# Disc length: 3316 seconds
#
# Revision: 1
# Processed by: cddbd v1.5.2PL0 Copyright (c) Steve Scherf et al.
# Submitted via: audiograbber 1.83.01
#
DISCID=e30cf210
DTITLE=Dr. Will - Itching Again
DYEAR=2007
DGENRE=Blues
TTITLE0=Gumbo French
TTITLE1=Steam Machine
TTITLE2=The truth is
TTITLE3=Good Times (are killing me)
TTITLE4=The Ballad of Fat Melon Willie McClinton Jr
TTITLE5=Penthouse Pauper
TTITLE6=Y' never stop (Do Ya?)
TTITLE7=Let Go
TTITLE8=Chalk Farm Road
TTITLE9=If You want me to deliver
TTITLE10=Shuffle with my Heart
TTITLE11=Itching again
TTITLE12=It doesn't snow
TTITLE13=Paintin' the Town
TTITLE14=Candy Man
TTITLE15=You got me Runnin'
EXTD=
EXTT0=
EXTT1=
EXTT2=
EXTT3=
EXTT4=
EXTT5=
EXTT6=
EXTT7=
EXTT8=
EXTT9=
EXTT10=
EXTT11=
EXTT12=
EXTT13=
EXTT14=
EXTT15=
PLAYORDER=
